<?xml version="1.0" encoding="UTF-8" standalone="no"?>
<svg
   width="254.00905"
   zoomAndPan="magnify"
   viewBox="0 0 190.50679 219.97384"
   height="293.29846"
   preserveAspectRatio="xMidYMid"
   version="1.2"
   id="svg42"
   sodipodi:docname="gtr-tech-connect_logo_tight.svg"
   inkscape:version="1.4.2 (2aeb623e1d, 2025-05-12)"
   inkscape:export-filename="gtr-tech-connect_logo_tight_large.png"
   inkscape:export-xdpi="188.96965"
   inkscape:export-ydpi="188.96965"
   xmlns:inkscape="http://www.inkscape.org/namespaces/inkscape"
   xmlns:sodipodi="http://sodipodi.sourceforge.net/DTD/sodipodi-0.dtd"
   xmlns="http://www.w3.org/2000/svg"
   xmlns:svg="http://www.w3.org/2000/svg">
  <sodipodi:namedview
     id="namedview42"
     pagecolor="#505050"
     bordercolor="#eeeeee"
     borderopacity="1"
     inkscape:showpageshadow="0"
     inkscape:pageopacity="0"
     inkscape:pagecheckerboard="0"
     inkscape:deskcolor="#505050"
     inkscape:zoom="1"
     inkscape:cx="417"
     inkscape:cy="250.5"
     inkscape:window-width="1854"
     inkscape:window-height="1011"
     inkscape:window-x="66"
     inkscape:window-y="32"
     inkscape:window-maximized="1"
     inkscape:current-layer="fe6121e414" />
  <defs
     id="defs4">
    <clipPath
       id="890d06f6c5">
      <path
         d="m 173,61.902344 h 77 V 170 h -77 z m 0,0"
         id="path1" />
    </clipPath>
    <clipPath
       id="8209558024">
      <path
         d="m 151,186 h 123.91016 v 27.76562 H 151 Z m 0,0"
         id="path2" />
    </clipPath>
    <clipPath
       id="b141a38157">
      <path
         d="M 99.78125,105 H 177 V 213.76562 H 99.78125 Z m 0,0"
         id="path3" />
    </clipPath>
    <filter
       x="0"
       y="0"
       width="1"
       filterUnits="objectBoundingBox"
       id="8dbfe51a47"
       height="1">
      <feColorMatrix
         values="0 0 0 0 1 0 0 0 0 1 0 0 0 0 1 0 0 0 1 0"
         type="matrix"
         in="SourceGraphic"
         id="feColorMatrix3" />
    </filter>
    <clipPath
       id="22f86e63c7">
      <path
         d="M 0.71875,0.320312 H 110.39844 V 98.71875 H 0.71875 Z m 0,0"
         id="path4" />
    </clipPath>
    <clipPath
       id="4bcd3d2250">
      <rect
         x="0"
         width="111"
         y="0"
         height="99"
         id="rect4" />
    </clipPath>
  </defs>
  <g
     id="fe6121e414"
     transform="translate(-92.234369,-61.914062)">
    <g
       style="fill:#e26b00;fill-opacity:1"
       id="g7">
      <g
         transform="translate(91.718744,245.63792)"
         id="g6">
        <path
           style="stroke:none"
           d="M 15.5625,-15.40625 H 9.90625 V 0 H 6.09375 V -15.40625 H 0.515625 v -3.078125 H 15.5625 Z m 0,0"
           id="path6" />
      </g>
    </g>
    <g
       style="fill:#e26b00;fill-opacity:1"
       id="g9">
      <g
         transform="translate(107.79887,245.63792)"
         id="g8">
        <path
           style="stroke:none"
           d="m 12.765625,-8.015625 h -7.3125 V -3.0625 h 8.59375 V 0 H 1.65625 v -18.484375 h 12.359375 v 3.078125 h -8.5625 V -11 h 7.3125 z m 0,0"
           id="path7" />
      </g>
    </g>
    <g
       style="fill:#e26b00;fill-opacity:1"
       id="g11">
      <g
         transform="translate(122.41948,245.63792)"
         id="g10">
        <path
           style="stroke:none"
           d="m 16.15625,-6.15625 c -0.136719,1.992188 -0.871094,3.558594 -2.203125,4.703125 C 12.628906,-0.316406 10.882812,0.25 8.71875,0.25 6.351562,0.25 4.488281,-0.546875 3.125,-2.140625 1.769531,-3.734375 1.09375,-5.921875 1.09375,-8.703125 V -9.84375 c 0,-1.769531 0.3125,-3.332031 0.9375,-4.6875 0.625,-1.351562 1.519531,-2.390625 2.6875,-3.109375 1.164062,-0.726563 2.515625,-1.09375 4.046875,-1.09375 2.132813,0 3.851563,0.574219 5.15625,1.71875 1.300781,1.136719 2.054687,2.734375 2.265625,4.796875 H 12.375 c -0.09375,-1.1875 -0.429688,-2.046875 -1,-2.578125 -0.5625,-0.539063 -1.433594,-0.8125 -2.609375,-0.8125 -1.261719,0 -2.210937,0.453125 -2.84375,1.359375 -0.625,0.90625 -0.949219,2.320312 -0.96875,4.234375 V -8.625 c 0,2 0.300781,3.464844 0.90625,4.390625 0.601563,0.917969 1.554687,1.375 2.859375,1.375 1.175781,0 2.050781,-0.265625 2.625,-0.796875 0.582031,-0.539062 0.921875,-1.375 1.015625,-2.5 z m 0,0"
           id="path9" />
      </g>
    </g>
    <g
       style="fill:#e26b00;fill-opacity:1"
       id="g13">
      <g
         transform="translate(139.42608,245.63792)"
         id="g12">
        <path
           style="stroke:none"
           d="m 16.6875,0 h -3.796875 v -7.921875 h -7.4375 V 0 H 1.65625 V -18.484375 H 5.453125 V -11 h 7.4375 v -7.484375 H 16.6875 Z m 0,0"
           id="path11" />
      </g>
    </g>
    <g
       style="fill:#e26b00;fill-opacity:1"
       id="g15">
      <g
         transform="translate(157.79068,245.63792)"
         id="g14">
        <path
           style="stroke:none"
           d=""
           id="path13" />
      </g>
    </g>
    <g
       style="fill:#e26b00;fill-opacity:1"
       id="g17">
      <g
         transform="translate(164.26334,245.63792)"
         id="g16">
        <path
           style="stroke:none"
           d="m 16.15625,-6.15625 c -0.136719,1.992188 -0.871094,3.558594 -2.203125,4.703125 C 12.628906,-0.316406 10.882812,0.25 8.71875,0.25 6.351562,0.25 4.488281,-0.546875 3.125,-2.140625 1.769531,-3.734375 1.09375,-5.921875 1.09375,-8.703125 V -9.84375 c 0,-1.769531 0.3125,-3.332031 0.9375,-4.6875 0.625,-1.351562 1.519531,-2.390625 2.6875,-3.109375 1.164062,-0.726563 2.515625,-1.09375 4.046875,-1.09375 2.132813,0 3.851563,0.574219 5.15625,1.71875 1.300781,1.136719 2.054687,2.734375 2.265625,4.796875 H 12.375 c -0.09375,-1.1875 -0.429688,-2.046875 -1,-2.578125 -0.5625,-0.539063 -1.433594,-0.8125 -2.609375,-0.8125 -1.261719,0 -2.210937,0.453125 -2.84375,1.359375 -0.625,0.90625 -0.949219,2.320312 -0.96875,4.234375 V -8.625 c 0,2 0.300781,3.464844 0.90625,4.390625 0.601563,0.917969 1.554687,1.375 2.859375,1.375 1.175781,0 2.050781,-0.265625 2.625,-0.796875 0.582031,-0.539062 0.921875,-1.375 1.015625,-2.5 z m 0,0"
           id="path15" />
      </g>
    </g>
    <g
       style="fill:#e26b00;fill-opacity:1"
       id="g19">
      <g
         transform="translate(181.26995,245.63792)"
         id="g18">
        <path
           style="stroke:none"
           d="m 16.828125,-8.828125 c 0,1.824219 -0.324219,3.421875 -0.96875,4.796875 -0.636719,1.367188 -1.554687,2.421875 -2.75,3.171875 C 11.910156,-0.117188 10.535156,0.25 8.984375,0.25 7.453125,0.25 6.082031,-0.113281 4.875,-0.84375 3.675781,-1.582031 2.75,-2.632812 2.09375,-4 c -0.65625,-1.375 -0.992188,-2.945312 -1,-4.71875 v -0.921875 c 0,-1.8125 0.328125,-3.410156 0.984375,-4.796875 0.65625,-1.382812 1.582031,-2.445312 2.78125,-3.1875 1.195313,-0.738281 2.566406,-1.109375 4.109375,-1.109375 1.539062,0 2.90625,0.371094 4.09375,1.109375 1.195312,0.742188 2.125,1.804688 2.78125,3.1875 0.65625,1.386719 0.984375,2.980469 0.984375,4.78125 z M 12.96875,-9.65625 c 0,-1.9375 -0.351562,-3.410156 -1.046875,-4.421875 -0.6875,-1.007813 -1.671875,-1.515625 -2.953125,-1.515625 -1.28125,0 -2.273438,0.5 -2.96875,1.5 -0.6875,0.992188 -1.039062,2.449219 -1.046875,4.375 v 0.890625 c 0,1.886719 0.34375,3.351563 1.03125,4.390625 0.695313,1.042969 1.695313,1.5625 3,1.5625 1.28125,0 2.265625,-0.5 2.953125,-1.5 0.6875,-1 1.03125,-2.460938 1.03125,-4.390625 z m 0,0"
           id="path17" />
      </g>
    </g>
    <g
       style="fill:#e26b00;fill-opacity:1"
       id="g21">
      <g
         transform="translate(199.21572,245.63792)"
         id="g20">
        <path
           style="stroke:none"
           d="M 16.6875,0 H 12.875 L 5.453125,-12.15625 V 0 H 1.65625 v -18.484375 h 3.796875 l 7.4375,12.1875 v -12.1875 H 16.6875 Z m 0,0"
           id="path19" />
      </g>
    </g>
    <g
       style="fill:#e26b00;fill-opacity:1"
       id="g23">
      <g
         transform="translate(217.56763,245.63792)"
         id="g22">
        <path
           style="stroke:none"
           d="M 16.6875,0 H 12.875 L 5.453125,-12.15625 V 0 H 1.65625 v -18.484375 h 3.796875 l 7.4375,12.1875 v -12.1875 H 16.6875 Z m 0,0"
           id="path21" />
      </g>
    </g>
    <g
       style="fill:#e26b00;fill-opacity:1"
       id="g25">
      <g
         transform="translate(235.91953,245.63792)"
         id="g24">
        <path
           style="stroke:none"
           d="m 12.765625,-8.015625 h -7.3125 V -3.0625 h 8.59375 V 0 H 1.65625 v -18.484375 h 12.359375 v 3.078125 h -8.5625 V -11 h 7.3125 z m 0,0"
           id="path23" />
      </g>
    </g>
    <g
       style="fill:#e26b00;fill-opacity:1"
       id="g27">
      <g
         transform="translate(250.54014,245.63792)"
         id="g26">
        <path
           style="stroke:none"
           d="m 16.15625,-6.15625 c -0.136719,1.992188 -0.871094,3.558594 -2.203125,4.703125 C 12.628906,-0.316406 10.882812,0.25 8.71875,0.25 6.351562,0.25 4.488281,-0.546875 3.125,-2.140625 1.769531,-3.734375 1.09375,-5.921875 1.09375,-8.703125 V -9.84375 c 0,-1.769531 0.3125,-3.332031 0.9375,-4.6875 0.625,-1.351562 1.519531,-2.390625 2.6875,-3.109375 1.164062,-0.726563 2.515625,-1.09375 4.046875,-1.09375 2.132813,0 3.851563,0.574219 5.15625,1.71875 1.300781,1.136719 2.054687,2.734375 2.265625,4.796875 H 12.375 c -0.09375,-1.1875 -0.429688,-2.046875 -1,-2.578125 -0.5625,-0.539063 -1.433594,-0.8125 -2.609375,-0.8125 -1.261719,0 -2.210937,0.453125 -2.84375,1.359375 -0.625,0.90625 -0.949219,2.320312 -0.96875,4.234375 V -8.625 c 0,2 0.300781,3.464844 0.90625,4.390625 0.601563,0.917969 1.554687,1.375 2.859375,1.375 1.175781,0 2.050781,-0.265625 2.625,-0.796875 0.582031,-0.539062 0.921875,-1.375 1.015625,-2.5 z m 0,0"
           id="path25" />
      </g>
    </g>
    <g
       style="fill:#e26b00;fill-opacity:1"
       id="g29">
      <g
         transform="translate(267.17866,245.63792)"
         id="g28">
        <path
           style="stroke:none"
           d="M 15.5625,-15.40625 H 9.90625 V 0 H 6.09375 V -15.40625 H 0.515625 v -3.078125 H 15.5625 Z m 0,0"
           id="path27" />
      </g>
    </g>
    <g
       style="fill:#e26b00;fill-opacity:1"
       id="g31">
      <g
         transform="translate(162.30077,281.63792)"
         id="g30">
        <path
           style="stroke:none"
           d="m 16.28125,-2.34375 c -0.6875,0.824219 -1.664062,1.464844 -2.921875,1.921875 C 12.109375,0.0234375 10.722656,0.25 9.203125,0.25 7.609375,0.25 6.207031,-0.0976562 5,-0.796875 3.789062,-1.492188 2.859375,-2.503906 2.203125,-3.828125 1.546875,-5.160156 1.207031,-6.722656 1.1875,-8.515625 V -9.78125 c 0,-1.84375 0.3125,-3.4375 0.9375,-4.78125 0.625,-1.351562 1.519531,-2.382812 2.6875,-3.09375 1.175781,-0.71875 2.550781,-1.078125 4.125,-1.078125 2.1875,0 3.898438,0.523437 5.140625,1.5625 1.238281,1.042969 1.972656,2.5625 2.203125,4.5625 H 12.5625 c -0.167969,-1.050781 -0.542969,-1.820313 -1.125,-2.3125 -0.574219,-0.5 -1.371094,-0.75 -2.390625,-0.75 -1.292969,0 -2.277344,0.492187 -2.953125,1.46875 -0.679688,0.96875 -1.023438,2.417969 -1.03125,4.34375 V -8.6875 c 0,1.9375 0.367188,3.402344 1.109375,4.390625 0.738281,0.992187 1.816406,1.484375 3.234375,1.484375 1.425781,0 2.445312,-0.300781 3.0625,-0.90625 v -3.1875 H 9 v -2.8125 h 7.28125 z m 0,0"
           id="path29" />
      </g>
    </g>
    <g
       style="fill:#e26b00;fill-opacity:1"
       id="g33">
      <g
         transform="translate(180.00541,281.63792)"
         id="g32">
        <path
           style="stroke:none"
           d="M 15.5625,-15.40625 H 9.90625 V 0 H 6.09375 V -15.40625 H 0.515625 v -3.078125 H 15.5625 Z m 0,0"
           id="path31" />
      </g>
    </g>
    <g
       style="fill:#e26b00;fill-opacity:1"
       id="g35">
      <g
         transform="translate(196.08553,281.63792)"
         id="g34">
        <path
           style="stroke:none"
           d="M 8.5,-6.765625 H 5.453125 V 0 H 1.65625 v -18.484375 h 6.859375 c 2.1875,0 3.867187,0.492187 5.046875,1.46875 1.1875,0.96875 1.78125,2.339844 1.78125,4.109375 0,1.273438 -0.273438,2.328125 -0.8125,3.171875 -0.542969,0.835937 -1.371094,1.5 -2.484375,2 l 4,7.5625 V 0 h -4.09375 z M 5.453125,-9.859375 H 8.53125 c 0.957031,0 1.695312,-0.238281 2.21875,-0.71875 0.53125,-0.488281 0.796875,-1.160156 0.796875,-2.015625 0,-0.875 -0.25,-1.5625 -0.75,-2.0625 -0.492187,-0.5 -1.25,-0.75 -2.28125,-0.75 h -3.0625 z m 0,0"
           id="path33" />
      </g>
    </g>
    <g
       clip-rule="nonzero"
       clip-path="url(#890d06f6c5)"
       id="g36">
      <path
         style="fill:#ffde59;fill-opacity:1;fill-rule:nonzero;stroke:none"
         d="M 249.20703,169.01953 187.37109,61.914062 173.23047,86.40625 l 47.11328,82.61328 h 28.86328"
         id="path35" />
    </g>
    <g
       clip-rule="nonzero"
       clip-path="url(#8209558024)"
       id="g37">
      <path
         style="fill:#ff914d;fill-opacity:1;fill-rule:nonzero;stroke:none"
         d="m 259.37109,186.625 h -92.17968 l -15.26172,26.96875 H 274.94141 L 259.37109,186.625"
         id="path36" />
    </g>
    <g
       clip-rule="nonzero"
       clip-path="url(#b141a38157)"
       id="g38">
      <path
         style="fill:#ffbd59;fill-opacity:1;fill-rule:nonzero;stroke:none"
         d="M 162.41797,105.13281 99.796875,213.59375 h 28.746095 l 48.05859,-83.07813 -14.18359,-25.38281"
         id="path37" />
    </g>
    <g
       mask="url(#bc7bdff51d)"
       transform="translate(132,100)"
       id="g42">
      <g
         clip-path="url(#4bcd3d2250)"
         id="g40">
        <g
           clip-rule="nonzero"
           clip-path="url(#22f86e63c7)"
           id="g39">
          <path
             style="fill:#a40606;fill-opacity:1;fill-rule:nonzero;stroke:none"
             d="m 108.42188,92.035156 c 3.53906,-6.125 1.4375,-13.953125 -4.6836,-17.488281 -6.124999,-3.539063 -13.95703,-1.4375 -17.492186,4.6875 -0.703125,1.210937 -1.179688,2.492187 -1.453125,3.796875 H 68.027344 C 67.46875,80.359375 66.0625,77.878906 63.921875,76.015625 l 8.375,-14.507813 c 5.675781,1.945313 12.117187,-0.324218 15.226563,-5.714843 3.535156,-6.125 1.441406,-13.957031 -4.6875,-17.492188 -3.464844,-2 -7.472657,-2.195312 -10.945313,-0.882812 L 63.617188,23.082031 C 64.792969,22.125 65.824219,20.941406 66.625,19.546875 c 3.539062,-6.125 1.441406,-13.953125 -4.683594,-17.488281 -6.125,-3.539063 -13.957031,-1.4375 -17.492187,4.683594 -3.535157,6.125 -1.4375,13.957031 4.6875,17.492187 3.183593,1.839844 6.835937,2.152344 10.101562,1.167969 L 67.6875,40.039062 c -0.902344,0.839844 -1.691406,1.828126 -2.339844,2.949219 -0.746094,1.289063 -1.242187,2.660157 -1.5,4.046875 H 47.179688 C 46.507812,43.5 44.363281,40.265625 41,38.324219 c -6.125,-3.535157 -13.953125,-1.4375 -17.492188,4.6875 -3.109374,5.390625 -1.859374,12.101562 2.664063,16.046875 l -8.375,14.503906 c -5.675781,-1.945312 -12.113281,0.328125 -15.226563,5.71875 -3.535156,6.121094 -1.4375,13.953125 4.6875,17.488281 6.125,3.539059 13.953126,1.4375 17.492188,-4.683593 3.109375,-5.390626 1.859375,-12.105469 -2.664062,-16.046876 l 8.375,-14.507812 c 2.757812,0.949219 5.699218,0.894531 8.351562,-0.02734 l 8.335938,14.441406 c -1.066407,0.914063 -2,2.023438 -2.742188,3.308594 -3.535156,6.125 -1.4375,13.957032 4.6875,17.492188 6.125,3.535152 13.953125,1.4375 17.492188,-4.6875 0.75,-1.300782 1.246093,-2.679688 1.503906,-4.078125 h 16.65625 c 0.664062,3.546875 2.8125,6.792969 6.1875,8.742187 6.121094,3.53515 13.953126,1.4375 17.488286,-4.6875 z M 63.898438,51.988281 c 0.554687,2.679688 1.964843,5.171875 4.109374,7.042969 l -8.375,14.507812 C 56.9375,72.613281 54.0625,72.644531 51.460938,73.507812 l -8.375,-14.503906 c 1.007812,-0.890625 1.890624,-1.957031 2.601562,-3.1875 0.707031,-1.226562 1.1875,-2.519531 1.457031,-3.832031 h 16.753907 z m 0,0"
             id="path38" />
        </g>
      </g>
      <mask
         id="bc7bdff51d">
        <g
           filter="url(#8dbfe51a47)"
           id="g41">
          <rect
             x="0"
             width="375"
             y="0"
             height="375"
             style="fill:#000000;fill-opacity:0.55;stroke:none"
             id="rect40" />
        </g>
      </mask>
    </g>
  </g>
</svg>
