<?xml version="1.0" encoding="UTF-8" standalone="no"?>
<svg
   width="233.48438"
   zoomAndPan="magnify"
   viewBox="0 0 175.11328 151.67968"
   height="202.23958"
   preserveAspectRatio="xMidYMid"
   version="1.2"
   id="svg42"
   sodipodi:docname="gtr-tech-connect_logo_tight_no-words.svg"
   inkscape:version="1.4.2 (2aeb623e1d, 2025-05-12)"
   inkscape:export-filename="gtr-tech-connect_logo_tight_large.png"
   inkscape:export-xdpi="188.96965"
   inkscape:export-ydpi="188.96965"
   xmlns:inkscape="http://www.inkscape.org/namespaces/inkscape"
   xmlns:sodipodi="http://sodipodi.sourceforge.net/DTD/sodipodi-0.dtd"
   xmlns="http://www.w3.org/2000/svg"
   xmlns:svg="http://www.w3.org/2000/svg">
  <sodipodi:namedview
     id="namedview42"
     pagecolor="#505050"
     bordercolor="#eeeeee"
     borderopacity="1"
     inkscape:showpageshadow="0"
     inkscape:pageopacity="0"
     inkscape:pagecheckerboard="0"
     inkscape:deskcolor="#505050"
     inkscape:zoom="1"
     inkscape:cx="144"
     inkscape:cy="256.5"
     inkscape:window-width="1854"
     inkscape:window-height="1011"
     inkscape:window-x="66"
     inkscape:window-y="32"
     inkscape:window-maximized="1"
     inkscape:current-layer="fe6121e414" />
  <defs
     id="defs4">
    <clipPath
       id="890d06f6c5">
      <path
         d="m 173,61.902344 h 77 V 170 h -77 z m 0,0"
         id="path1" />
    </clipPath>
    <clipPath
       id="8209558024">
      <path
         d="m 151,186 h 123.91016 v 27.76562 H 151 Z m 0,0"
         id="path2" />
    </clipPath>
    <clipPath
       id="b141a38157">
      <path
         d="M 99.78125,105 H 177 V 213.76562 H 99.78125 Z m 0,0"
         id="path3" />
    </clipPath>
    <filter
       x="0"
       y="0"
       width="1"
       filterUnits="objectBoundingBox"
       id="8dbfe51a47"
       height="1">
      <feColorMatrix
         values="0 0 0 0 1 0 0 0 0 1 0 0 0 0 1 0 0 0 1 0"
         type="matrix"
         in="SourceGraphic"
         id="feColorMatrix3" />
    </filter>
    <clipPath
       id="22f86e63c7">
      <path
         d="M 0.71875,0.320312 H 110.39844 V 98.71875 H 0.71875 Z m 0,0"
         id="path4" />
    </clipPath>
    <clipPath
       id="4bcd3d2250">
      <rect
         x="0"
         width="111"
         y="0"
         height="99"
         id="rect4" />
    </clipPath>
  </defs>
  <g
     id="fe6121e414"
     transform="translate(-99.796875,-61.914062)">
    <g
       style="fill:#e26b00;fill-opacity:1"
       id="g15">
      <g
         transform="translate(157.79068,245.63792)"
         id="g14">
        <path
           style="stroke:none"
           d=""
           id="path13" />
      </g>
    </g>
    <g
       clip-rule="nonzero"
       clip-path="url(#890d06f6c5)"
       id="g36">
      <path
         style="fill:#ffde59;fill-opacity:1;fill-rule:nonzero;stroke:none"
         d="M 249.20703,169.01953 187.37109,61.914062 173.23047,86.40625 l 47.11328,82.61328 h 28.86328"
         id="path35" />
    </g>
    <g
       clip-rule="nonzero"
       clip-path="url(#8209558024)"
       id="g37">
      <path
         style="fill:#ff914d;fill-opacity:1;fill-rule:nonzero;stroke:none"
         d="m 259.37109,186.625 h -92.17968 l -15.26172,26.96875 H 274.94141 L 259.37109,186.625"
         id="path36" />
    </g>
    <g
       clip-rule="nonzero"
       clip-path="url(#b141a38157)"
       id="g38">
      <path
         style="fill:#ffbd59;fill-opacity:1;fill-rule:nonzero;stroke:none"
         d="M 162.41797,105.13281 99.796875,213.59375 h 28.746095 l 48.05859,-83.07813 -14.18359,-25.38281"
         id="path37" />
    </g>
    <g
       mask="url(#bc7bdff51d)"
       transform="translate(132,100)"
       id="g42">
      <g
         clip-path="url(#4bcd3d2250)"
         id="g40">
        <g
           clip-rule="nonzero"
           clip-path="url(#22f86e63c7)"
           id="g39">
          <path
             style="fill:#a40606;fill-opacity:1;fill-rule:nonzero;stroke:none"
             d="m 108.42188,92.035156 c 3.53906,-6.125 1.4375,-13.953125 -4.6836,-17.488281 -6.124999,-3.539063 -13.95703,-1.4375 -17.492186,4.6875 -0.703125,1.210937 -1.179688,2.492187 -1.453125,3.796875 H 68.027344 C 67.46875,80.359375 66.0625,77.878906 63.921875,76.015625 l 8.375,-14.507813 c 5.675781,1.945313 12.117187,-0.324218 15.226563,-5.714843 3.535156,-6.125 1.441406,-13.957031 -4.6875,-17.492188 -3.464844,-2 -7.472657,-2.195312 -10.945313,-0.882812 L 63.617188,23.082031 C 64.792969,22.125 65.824219,20.941406 66.625,19.546875 c 3.539062,-6.125 1.441406,-13.953125 -4.683594,-17.488281 -6.125,-3.539063 -13.957031,-1.4375 -17.492187,4.683594 -3.535157,6.125 -1.4375,13.957031 4.6875,17.492187 3.183593,1.839844 6.835937,2.152344 10.101562,1.167969 L 67.6875,40.039062 c -0.902344,0.839844 -1.691406,1.828126 -2.339844,2.949219 -0.746094,1.289063 -1.242187,2.660157 -1.5,4.046875 H 47.179688 C 46.507812,43.5 44.363281,40.265625 41,38.324219 c -6.125,-3.535157 -13.953125,-1.4375 -17.492188,4.6875 -3.109374,5.390625 -1.859374,12.101562 2.664063,16.046875 l -8.375,14.503906 c -5.675781,-1.945312 -12.113281,0.328125 -15.226563,5.71875 -3.535156,6.121094 -1.4375,13.953125 4.6875,17.488281 6.125,3.539059 13.953126,1.4375 17.492188,-4.683593 3.109375,-5.390626 1.859375,-12.105469 -2.664062,-16.046876 l 8.375,-14.507812 c 2.757812,0.949219 5.699218,0.894531 8.351562,-0.02734 l 8.335938,14.441406 c -1.066407,0.914063 -2,2.023438 -2.742188,3.308594 -3.535156,6.125 -1.4375,13.957032 4.6875,17.492188 6.125,3.535152 13.953125,1.4375 17.492188,-4.6875 0.75,-1.300782 1.246093,-2.679688 1.503906,-4.078125 h 16.65625 c 0.664062,3.546875 2.8125,6.792969 6.1875,8.742187 6.121094,3.53515 13.953126,1.4375 17.488286,-4.6875 z M 63.898438,51.988281 c 0.554687,2.679688 1.964843,5.171875 4.109374,7.042969 l -8.375,14.507812 C 56.9375,72.613281 54.0625,72.644531 51.460938,73.507812 l -8.375,-14.503906 c 1.007812,-0.890625 1.890624,-1.957031 2.601562,-3.1875 0.707031,-1.226562 1.1875,-2.519531 1.457031,-3.832031 h 16.753907 z m 0,0"
             id="path38" />
        </g>
      </g>
      <mask
         id="bc7bdff51d">
        <g
           filter="url(#8dbfe51a47)"
           id="g41">
          <rect
             x="0"
             width="375"
             y="0"
             height="375"
             style="fill:#000000;fill-opacity:0.55;stroke:none"
             id="rect40" />
        </g>
      </mask>
    </g>
  </g>
</svg>
